<svg width="300" height="438" viewBox="0 0 300 438" fill="none" xmlns="http://www.w3.org/2000/svg">
<circle cx="149" cy="219" r="149" fill="white"/>
<path fill-rule="evenodd" clip-rule="evenodd" d="M116.644 199C118.447 223.61 234.607 296.063 235.285 298.096C235.736 299.452 199.128 383.778 199.128 383.778L209.283 387.724C209.283 387.724 265.433 298.416 262.549 288.9C258.42 275.276 172.422 199.262 172.422 199.262L116.644 199Z" fill="#E8BA9E"/>
<path fill-rule="evenodd" clip-rule="evenodd" d="M201.8 371.082L218.379 377.117C253.336 337.674 267.038 305.131 264.54 288.549C262.042 271.968 174.724 199.06 174.724 199.06L115.455 199.06C117.477 256.052 225.143 298.313 226.583 300.742C228.023 303.171 213.851 326.957 201.8 371.082Z" fill="#212659"/>
<path fill-rule="evenodd" clip-rule="evenodd" d="M198.379 381.737C197.533 380.927 196.173 380.94 195.421 381.838C194.051 383.476 192.103 385.97 191.522 387.565C190.597 390.107 189.669 395.292 189.669 395.292C192.618 396.365 242.67 414.582 242.67 414.582C242.67 414.582 247.222 408.504 242.969 406.34C238.716 404.175 235.931 402.664 235.931 402.664L215.294 382.716C214.889 382.325 214.241 382.345 213.861 382.761L210.88 386.026C210.88 386.026 206.059 386.449 203.483 385.511C201.915 384.94 199.796 383.094 198.379 381.737Z" fill="white"/>
<path fill-rule="evenodd" clip-rule="evenodd" d="M130 199L78.2542 323.227L27.396 428.25H39.3951L170.674 199H130Z" fill="#E8BA9E"/>
<path fill-rule="evenodd" clip-rule="evenodd" d="M29.4496 422.284C28.3779 421.813 27.1043 422.29 26.7051 423.391C25.977 425.398 25 428.409 25 430.106C25 432.811 25.9012 438 25.9012 438C29.0392 438 82.3031 438 82.3031 438C82.3031 438 84.5016 430.732 79.7648 430.152C75.0281 429.573 71.895 429.106 71.895 429.106L45.68 417.419C45.1654 417.189 44.563 417.43 44.3483 417.951L42.6632 422.039C42.6632 422.039 38.2782 424.085 35.5367 424.085C33.8677 424.085 31.2457 423.074 29.4496 422.284Z" fill="white"/>
<path fill-rule="evenodd" clip-rule="evenodd" d="M31.9888 406.433L58.6509 411.433C79.266 381.125 165.541 256.852 175 199H115.644C84.0551 240.821 51.6392 375.624 31.9888 406.433Z" fill="#2F3676"/>
<path fill-rule="evenodd" clip-rule="evenodd" d="M129.521 75.9678C122.998 79.9085 116.588 81.8125 113.58 81.0352C106.035 79.0862 105.342 51.4248 111.179 40.5199C117.017 29.6149 147.026 24.8618 148.538 46.468C149.063 53.9669 145.922 60.6591 141.28 66.1199L149.603 105H125.427L129.521 75.9678Z" fill="#E8BA9E"/>
<path fill-rule="evenodd" clip-rule="evenodd" d="M128.312 48.8542C126.221 45.7334 124.213 43.353 121.602 41.9707C110.973 42.139 109.729 40.2293 109.729 33.7928C111.445 32.5616 117.503 30.4886 124.286 29.9054C127.746 28.9129 131.846 29.0996 135.795 30.7551C140.67 32.1414 144.797 35.1268 146.621 40.7161C153.217 52.1254 148.21 64.0022 141.463 68.0594C139.667 65.9268 138.1 63.86 136.701 61.8816C137.825 60.7816 138.522 59.2465 138.522 57.5481C138.522 54.2025 135.816 51.4904 132.478 51.4904C132.233 51.4904 131.991 51.5051 131.753 51.5336C131.603 55.7164 130.984 69.8681 129.361 74.7837C127.446 80.579 116.276 82.002 112.38 82.002C109.015 82.002 109.13 78.8084 109.212 76.5196C109.224 76.1899 109.235 75.8791 109.235 75.5992C109.235 75.0145 109.994 75.0161 110.851 75.0178C111.964 75.02 113.244 75.0225 113.244 73.7424C113.244 72.347 111.32 71.2766 109.598 70.3188C108.524 69.7212 107.528 69.1674 107.128 68.6059C105.865 66.8343 105.44 64.4448 107.345 64.4448C108.386 64.4448 109.815 65.0465 111.534 65.7704C114.129 66.8633 117.385 68.2346 120.968 68.2346C126.887 68.2346 128.295 49.0937 128.312 48.8542Z" fill="#A8855D"/>
<path fill-rule="evenodd" clip-rule="evenodd" d="M234.679 202.635L202.781 179.211L195.73 196.642L227.317 209.741C236.251 220.235 241.246 224.61 242.304 222.865C243.195 221.394 242.498 220.017 241.856 218.748C241.356 217.76 240.89 216.838 241.233 215.989C242.018 214.049 248.019 214.254 253.705 214.691C259.392 215.128 257.735 212.598 256.363 211.348C250.559 207.874 243.331 204.97 234.679 202.635ZM67.3978 243.908C70.3282 237.963 80.3078 180.02 80.3078 180.02L101.205 180.102C101.205 180.102 81.8504 242.583 80.3078 246.406C78.3038 251.372 81.7078 258.587 84.0159 263.48C84.373 264.237 84.7039 264.938 84.9844 265.567C81.7817 267 80.2433 265.268 78.6213 263.442C76.7894 261.379 74.851 259.196 70.2878 261.319C68.5248 262.14 66.8565 263.109 65.2266 264.057C59.5967 267.329 54.4247 270.336 47.3889 265.994C46.2734 265.306 45.0511 262.715 48.0044 260.69C55.3622 255.644 65.9651 246.815 67.3978 243.908Z" fill="#E8BA9E"/>
<path fill-rule="evenodd" clip-rule="evenodd" d="M139.695 92.3321L148.342 90.8489C180.426 118.564 193.603 171.809 232.93 200.015L223.464 211.748C155.24 203.301 138.33 138.355 139.695 92.3321Z" fill="#D7725E"/>
<path fill-rule="evenodd" clip-rule="evenodd" d="M102 201C102 201 154.008 201 178.511 201C182.008 201 181.349 195.952 180.843 193.404C175.011 164.004 152.241 132.312 152.241 90.4607L130.172 87C111.917 116.358 105.605 152.505 102 201Z" fill="#DDE3E9"/>
<path fill-rule="evenodd" clip-rule="evenodd" d="M93.3968 222C89.9582 230.259 86.5862 237.465 83.4089 243H66.9999C65.2345 185.919 86.8454 141.996 104.931 115.513C100.916 115.226 97.2911 113.545 94.9999 109.411C86.9335 94.856 89.8467 86.8424 98.4671 84.2082C103.207 82.7597 107.666 83.7484 113.002 84.9319C117.369 85.9003 122.325 86.9992 128.504 86.9999C128.506 86.9999 128.508 86.9999 128.51 86.9999C129.109 86.9999 129.654 87.0401 130.148 87.1168L137.472 87.5347C137.472 87.5347 167.205 188.305 153.872 222H93.3968Z" fill="#F8856E"/>
<path fill-rule="evenodd" clip-rule="evenodd" d="M93.397 222C97.9087 211.164 102.535 198.516 106.987 185.454C108.645 199.839 111.405 214.286 116 222H93.397Z" fill="black" fill-opacity="0.1"/>
</svg>
