<svg width="25" height="25" viewBox="0 0 25 25" fill="none" xmlns="http://www.w3.org/2000/svg">
<path d="M10.2007 23.8049L9.80273 23.722V23.3154V19.8877C9.80273 19.4316 9.86403 19.0858 9.98598 18.7858C10.1007 18.5034 10.2603 18.288 10.3983 18.1017C10.4033 18.0949 10.4084 18.0881 10.4133 18.0814L10.4256 18.0649L10.4391 18.0494C10.5242 17.9523 10.5692 17.8856 10.8767 17.42L10.5233 17.3648C10.5225 17.3647 10.5217 17.3646 10.5209 17.3645C8.99463 17.1406 7.89691 16.6258 7.11312 15.9845C6.32981 15.3436 5.88477 14.5966 5.63234 13.9452L5.63231 13.9453L5.63022 13.9397C4.98445 12.2124 5.31533 10.057 6.49328 8.66621C6.57875 8.56529 6.62041 8.42433 6.57852 8.30405L6.57842 8.30408L6.57534 8.29461C6.44335 7.88983 6.39338 7.3971 6.39145 6.96631C6.38955 6.54541 6.43319 6.1059 6.53595 5.81809L6.67282 5.43474L7.07596 5.49101C7.54731 5.55681 7.99382 5.74899 8.39166 5.96117C8.68381 6.11698 8.97643 6.29901 9.2424 6.46445C9.33294 6.52078 9.4204 6.57518 9.50371 6.62598C9.62864 6.69816 9.70041 6.70263 9.73795 6.70235C9.7643 6.70216 9.79075 6.6991 9.83558 6.69227C9.83827 6.69186 9.84169 6.69131 9.84577 6.69065C9.86791 6.68709 9.9093 6.68044 9.95712 6.67632C10.8026 6.44008 11.6641 6.32125 12.4853 6.32125C13.592 6.32125 14.4039 6.51561 14.9325 6.64213C15.0219 6.66353 15.1032 6.683 15.1765 6.69925C15.1996 6.69859 15.2199 6.69846 15.2346 6.69837C15.2391 6.69834 15.2431 6.69831 15.2465 6.69828C15.2826 6.6979 15.3024 6.69697 15.321 6.69459C15.3473 6.69123 15.3998 6.68179 15.4969 6.62553C15.5818 6.57423 15.6729 6.51782 15.7685 6.45864C16.0229 6.30109 16.3092 6.12386 16.5952 5.97089C16.9947 5.75725 17.4489 5.55892 17.9224 5.49124L18.3267 5.43346L18.464 5.81809C18.5668 6.10591 18.6104 6.54541 18.6085 6.96634C18.6066 7.39714 18.5565 7.88991 18.4244 8.29473L18.4245 8.29476L18.4214 8.30381C18.3795 8.42423 18.4212 8.56539 18.5067 8.66643C19.6847 10.0571 20.0155 12.2125 19.3698 13.9397L19.3698 13.9397L19.3677 13.9452C19.1152 14.5966 18.6702 15.3436 17.8869 15.9845C17.1031 16.6258 16.0054 17.1406 14.4791 17.3645C14.4783 17.3646 14.4775 17.3647 14.4767 17.3648L14.123 17.42C14.4179 17.8668 14.4729 17.9491 14.5609 18.0496L14.5743 18.0649L14.5864 18.0813C14.5913 18.0879 14.5963 18.0946 14.6013 18.1014C14.7394 18.2877 14.8991 18.5032 15.014 18.7857C15.136 19.0858 15.1973 19.4316 15.1973 19.8877V23.3154V23.722L14.7993 23.8049C14.0604 23.9589 13.279 24.0352 12.5 24.0352C11.721 24.0352 10.9396 23.9589 10.2007 23.8049ZM9.33789 22.8907V23.5958L8.67249 23.3625C4.21866 21.8013 0.964844 17.5464 0.964844 12.5488C0.964844 6.21114 6.15658 0.964844 12.5 0.964844C18.8434 0.964844 24.0352 6.21114 24.0352 12.5488C24.0352 17.5464 20.7813 21.8013 16.3275 23.3625L15.6621 23.5958V22.8907V20.9156V20.2976L16.2665 20.4266C16.7384 20.5273 17.1539 20.5278 17.6099 20.3936C18.211 20.216 18.7155 19.815 19.1061 19.1571C19.2638 18.8911 19.4966 18.5912 19.7792 18.3578C19.9435 18.2221 20.1494 18.0891 20.3852 18.0132L20.4286 17.5219C19.7589 17.6649 19.1352 18.1989 18.7061 18.9199C18.4009 19.433 18.0121 19.79 17.4784 19.9478L17.4776 19.948C16.9732 20.0963 16.4672 20.0131 15.9711 19.842L15.6691 19.7379L15.6367 19.4201C15.5864 18.9279 15.4618 18.5859 15.3178 18.334L14.9963 17.7717L15.6217 17.6031C17.722 17.0367 19.1583 15.8144 19.7951 14.1029L19.7959 14.1006C20.4837 12.2802 20.1692 10.0741 19.0304 8.5737L18.89 8.38875L18.9407 8.16216C19.0399 7.71911 19.0915 7.1294 19.056 6.5691C19.0194 5.99188 18.8956 5.53346 18.7161 5.28334C18.5677 5.07989 18.3931 4.99561 18.2096 4.99229C17.1989 5.04813 16.4244 5.51517 15.4064 6.12908L15.3947 6.13611L15.2114 6.24664L15.0049 6.19031C14.2404 5.98176 13.3764 5.85641 12.5147 5.85641C11.665 5.85641 10.8147 5.96774 9.97745 6.19104L9.77131 6.24602L9.58897 6.13525C9.56166 6.11865 9.5345 6.10214 9.50749 6.08571C8.56438 5.51229 7.80006 5.04758 6.84636 4.99219H6.84634H6.84626H6.84618H6.84609H6.84601H6.84592H6.84584H6.84575H6.84566C6.60394 4.99219 6.4289 5.0846 6.28395 5.28325C6.10438 5.53331 5.98047 5.99178 5.94386 6.5691C5.90833 7.12938 5.95998 7.71905 6.05926 8.16207L6.11005 8.3887L5.96964 8.5737C4.83097 10.0739 4.51597 12.2659 5.20449 14.1017L5.20494 14.1029C5.8417 15.8144 7.27799 17.0367 9.37834 17.6031L10.0035 17.7717L9.68229 18.3339C9.49634 18.6594 9.33789 19.1284 9.33789 19.8877V22.8907ZM24.5 12.5488C24.5 5.95236 19.0914 0.5 12.5 0.5C5.90859 0.5 0.5 5.95236 0.5 12.5488C0.5 19.1107 5.86273 24.5 12.5 24.5C19.1454 24.5 24.5 19.1027 24.5 12.5488Z" fill="black" stroke="#2F3676"/>
</svg>
