<svg width="25" height="25" viewBox="0 0 25 25" fill="none" xmlns="http://www.w3.org/2000/svg">
<path d="M16 6.5C16 6.5 16 12.9932 16 16.6955C16 20.3978 11.7895 19.9864 11.7895 19.9864C11.7895 19.9864 9.5 19.9864 8.5 18.5" stroke="#2F3676" stroke-width="1.5" stroke-linecap="round" stroke-linejoin="round"/>
<path d="M12.1901 6.00415C14.6249 6.1233 16.0908 8.64183 15.9956 11.1997C15.905 13.6359 14.509 15.8806 12.1901 15.9956C9.77357 16.1156 8.10009 13.7385 8.00409 11.1997C7.90367 8.54393 9.66208 5.88044 12.1901 6.00415Z" stroke="#2F3676" stroke-width="1.5" stroke-linejoin="round"/>
<path d="M3.71094 0.5H21.2891C23.0373 0.5 24.5 1.96159 24.5 3.71094V21.2891C24.5 23.0373 23.0384 24.5 21.2891 24.5H3.71094C1.96269 24.5 0.5 23.0384 0.5 21.2891V3.71094C0.5 1.96269 1.96159 0.5 3.71094 0.5ZM21.2891 24.0352C22.7827 24.0352 24.0352 22.7827 24.0352 21.2891V3.71094C24.0352 2.21733 22.7827 0.964844 21.2891 0.964844H3.71094C2.21733 0.964844 0.964844 2.21733 0.964844 3.71094V21.2891C0.964844 22.7827 2.21733 24.0352 3.71094 24.0352H21.2891Z" fill="black" stroke="#2F3676"/>
</svg>
