<svg width="25" height="25" viewBox="0 0 25 25" fill="none" xmlns="http://www.w3.org/2000/svg">
<path d="M18.2327 0H6.76727C3.03574 0 0 3.03574 0 6.76727V18.2329C0 21.9643 3.03574 25 6.76727 25H18.2329C21.9643 25 25 21.9643 25 18.2329V6.76727C25 3.03574 21.9643 0 18.2327 0ZM23.5344 18.2329C23.5344 21.1561 21.1561 23.5344 18.2327 23.5344H6.76727C3.84388 23.5344 1.46561 21.1561 1.46561 18.2329V6.76727C1.46561 3.84388 3.84388 1.46561 6.76727 1.46561H18.2329C21.1561 1.46561 23.5344 3.84388 23.5344 6.76727V18.2329Z" fill="#2F3676"/>
<path d="M12.5001 5.66425C8.73075 5.66425 5.66431 8.73069 5.66431 12.5C5.66431 16.2693 8.73075 19.3357 12.5001 19.3357C16.2694 19.3357 19.3358 16.2693 19.3358 12.5C19.3358 8.73069 16.2694 5.66425 12.5001 5.66425ZM12.5001 17.8701C9.53909 17.8701 7.12991 15.4612 7.12991 12.5C7.12991 9.53902 9.53909 7.12985 12.5001 7.12985C15.4612 7.12985 17.8702 9.53902 17.8702 12.5C17.8702 15.4612 15.4612 17.8701 12.5001 17.8701Z" fill="#2F3676"/>
<path d="M19.4991 3.23657C18.3852 3.23657 17.4792 4.14275 17.4792 5.25645C17.4792 6.37035 18.3852 7.27653 19.4991 7.27653C20.613 7.27653 21.5192 6.37035 21.5192 5.25645C21.5192 4.14256 20.613 3.23657 19.4991 3.23657ZM19.4991 5.81073C19.1936 5.81073 18.9449 5.56201 18.9449 5.25645C18.9449 4.95071 19.1936 4.70218 19.4991 4.70218C19.8049 4.70218 20.0536 4.95071 20.0536 5.25645C20.0536 5.56201 19.8049 5.81073 19.4991 5.81073Z" fill="#2F3676"/>
</svg>
