<svg width="25" height="25" viewBox="0 0 25 25" fill="none" xmlns="http://www.w3.org/2000/svg">
<path d="M6.64062 21.0566H7.14062V20.5566V10.3027V9.80273H6.64062H5.17578H4.67578V10.3027V20.5566V21.0566H5.17578H6.64062ZM4.44336 9.33789H7.37305C7.50145 9.33789 7.60547 9.44191 7.60547 9.57031V21.2891C7.60547 21.4175 7.50145 21.5215 7.37305 21.5215H4.44336C4.31495 21.5215 4.21094 21.4175 4.21094 21.2891V9.57031C4.21094 9.44191 4.31495 9.33789 4.44336 9.33789Z" fill="black" stroke="#2F3676"/>
<path d="M4.21094 5.17578C4.21094 4.24038 4.9728 3.47852 5.9082 3.47852C6.84361 3.47852 7.60547 4.24038 7.60547 5.17578C7.60547 6.11119 6.84361 6.87305 5.9082 6.87305C4.9728 6.87305 4.21094 6.11119 4.21094 5.17578ZM4.67578 5.17578C4.67578 5.85571 5.22828 6.4082 5.9082 6.4082C6.58813 6.4082 7.14062 5.85571 7.14062 5.17578C7.14062 4.49585 6.58813 3.94336 5.9082 3.94336C5.22828 3.94336 4.67578 4.49585 4.67578 5.17578Z" fill="black" stroke="#2F3676"/>
<path d="M13.4634 9.54304L13.5509 10.3L14.2104 9.91844C15.0916 9.40876 16.1993 9.20046 17.2852 9.37665C19.4182 9.72277 20.7891 11.4603 20.7891 13.4052V21.2891C20.7891 21.4175 20.685 21.5215 20.5566 21.5215H17.627C17.4985 21.5215 17.3945 21.4175 17.3945 21.2891V14.6973C17.3945 13.6134 16.5136 12.7324 15.4297 12.7324C14.3458 12.7324 13.4648 13.6134 13.4648 14.6973V21.2891C13.4648 21.4175 13.3608 21.5215 13.2324 21.5215H10.3027C10.1743 21.5215 10.0703 21.4175 10.0703 21.2891V9.57032C10.0703 9.44191 10.1743 9.3379 10.3027 9.3379H13.2324C13.3512 9.3379 13.45 9.42757 13.4634 9.54304ZM19.8242 21.0566H20.3242V20.5566V13.4052C20.3242 11.7561 19.1911 10.1569 17.2108 9.83552C15.9478 9.63051 14.5863 10.0101 13.7384 10.8578L13.7383 10.8578L13.3967 11.1994C13.3302 11.2659 13.2302 11.2858 13.1437 11.25C13.0566 11.2139 13 11.129 13 11.0352V10.3027V9.80274H12.5H11.0352H10.5352V10.3027V20.5566V21.0566H11.0352H12.5H13V20.5566V14.6973C13 13.3579 14.0903 12.2676 15.4297 12.2676C16.7691 12.2676 17.8594 13.3579 17.8594 14.6973V20.5566V21.0566H18.3594H19.8242Z" fill="black" stroke="#2F3676"/>
<path d="M3.71094 0.5H21.2891C23.0373 0.5 24.5 1.96159 24.5 3.71094V21.2891C24.5 23.0373 23.0384 24.5 21.2891 24.5H3.71094C1.96269 24.5 0.5 23.0384 0.5 21.2891V3.71094C0.5 1.96269 1.96159 0.5 3.71094 0.5ZM21.2891 24.0352C22.7827 24.0352 24.0352 22.7827 24.0352 21.2891V3.71094C24.0352 2.21733 22.7827 0.964844 21.2891 0.964844H3.71094C2.21733 0.964844 0.964844 2.21733 0.964844 3.71094V21.2891C0.964844 22.7827 2.21733 24.0352 3.71094 24.0352H21.2891Z" fill="black" stroke="#2F3676"/>
</svg>
